<?xml version="1.0" encoding="iso-8859-1"?>
<!-- Generator: Adobe Illustrator 16.0.0, SVG Export Plug-In . SVG Version: 6.00 Build 0)  -->
<!DOCTYPE svg PUBLIC "-//W3C//DTD SVG 1.1//EN" "http://www.w3.org/Graphics/SVG/1.1/DTD/svg11.dtd">
<svg version="1.1" id="Capa_1" xmlns="http://www.w3.org/2000/svg" xmlns:xlink="http://www.w3.org/1999/xlink" x="0px" y="0px"
	 width="214.958px" height="214.958px" viewBox="0 0 214.958 214.958" style="enable-background:new 0 0 214.958 214.958;"
	 xml:space="preserve" fill="#ffffff">
<title>Wood</title>
<g>
	<path d="M70.791,57.747c-12.559,0-22.778,10.218-22.778,22.777c0,12.56,10.219,22.778,22.778,22.778
		c12.56,0,22.778-10.219,22.778-22.778C93.569,67.965,83.35,57.747,70.791,57.747z M70.791,96.293
		c-8.694,0-15.769-7.075-15.769-15.77c0-8.694,7.075-15.769,15.769-15.769c8.694,0,15.77,7.075,15.77,15.769
		C86.56,89.218,79.488,96.293,70.791,96.293z"/>
	<path d="M70.791,70.764c-5.379,0-9.756,4.377-9.756,9.757c0,5.379,4.377,9.755,9.756,9.755c5.378,0,9.755-4.375,9.755-9.755
		C80.545,75.141,76.168,70.764,70.791,70.764z M70.791,83.272c-1.518,0-2.748-1.233-2.748-2.748c0-1.514,1.234-2.748,2.748-2.748
		c1.513,0,2.747,1.233,2.747,2.748C73.537,82.039,72.309,83.272,70.791,83.272z"/>
	<path d="M214.816,119.809c-0.288-0.951-0.944-1.681-1.766-2.098c-0.038-0.097-0.056-0.206-0.097-0.305
		c-6.197-15.552-24.352-20.776-25.125-20.986c-0.089-0.029-0.191-0.007-0.28-0.026c3.23-5.929,5.092-11.697,5.592-17.265
		c0.109-0.378,0.137-0.768,0.109-1.174c0.232-4.349-0.343-8.583-1.8-12.662c-6.934-19.385-30.55-28.016-31.549-28.373
		c-0.49-0.176-1.017-0.24-1.53-0.19L70.44,45.492c0,0,0,0-0.003,0c-19.157,0.193-34.689,15.826-34.689,35.025
		c0,19.323,15.72,35.045,35.043,35.045c1.128,0,2.242-0.068,3.344-0.175c-3.393,3.412-6.059,7.522-7.823,12.077
		c-5.778-11.434-17.605-19.308-31.268-19.308C15.72,108.157,0,123.877,0,143.2c0,10.242,4.447,19.448,11.476,25.861
		c0.019,0.01,0.026,0.03,0.043,0.044c0.007,0.007,0.017,0.007,0.024,0.014c1.595,1.447,3.323,2.748,5.166,3.888
		c0.101,0.075,0.214,0.127,0.322,0.195c5.275,3.176,11.425,5.041,18.016,5.041c14.866,0,27.569-9.326,32.649-22.419
		c5.78,11.437,17.607,19.312,31.27,19.312c3.311,0,6.508-0.496,9.548-1.358c0.009-0.004,0.016-0.004,0.022-0.004l96.267-19.739
		c0.958-0.194,1.797-0.787,2.3-1.629c6.57-10.95,8.977-20.919,7.31-29.763C214.918,121.828,215.117,120.815,214.816,119.809z
		 M207.657,131.762c-0.712-0.205-1.479-0.239-2.221,0.052c-15.123,5.947-33.322,13.281-37.422,15.688
		c-3.135,0.674-19.951,0.03-28.113-0.288c-2.676-0.103-4.839-0.188-6.58-0.239c0.441-2.225,0.684-4.521,0.684-6.872
		c0-0.804-0.068-1.581-0.119-2.371c12.631-3.638,27.001-6.485,29.715-5.226c5.037,3.363,25.878-1.592,44.187-6.938
		C208.005,127.542,207.958,129.61,207.657,131.762z M114.731,140.099c0,8.692-7.075,15.77-15.769,15.77s-15.769-7.077-15.769-15.77
		c0-8.696,7.075-15.77,15.769-15.77c2.018,0,3.939,0.418,5.715,1.108l-2.947,5.35c-0.885-0.264-1.802-0.448-2.769-0.448
		c-5.383,0-9.76,4.377-9.76,9.756c0,5.38,4.377,9.754,9.76,9.754c5.375,0,9.753-4.374,9.753-9.754c0-0.657-0.072-1.29-0.193-1.909
		l5.012-4.069C114.296,135.965,114.731,137.981,114.731,140.099z M98.294,142.713c-1.188-0.312-2.084-1.338-2.084-2.614
		c0-1.181,0.756-2.17,1.805-2.557l-0.477,0.866C96.746,139.842,97.073,141.625,98.294,142.713z M114.978,123.925
		c-0.315-0.311-0.65-0.599-0.976-0.893l2.591-4.705c0.869,0.704,1.693,1.475,2.478,2.275L114.978,123.925z M179.582,58.696
		c-17.316,5.079-36.98,9.55-40.266,8.396c-5.28-3.515-22.853,0.659-34.782,4.103c-0.622-2.25-1.458-4.401-2.492-6.444h24.999
		c0.277,0,0.555-0.036,0.825-0.098l21.823-5.285l23.883-6.561C175.694,54.529,177.747,56.489,179.582,58.696z M184.862,67.684
		c0.886,2.491,1.317,5.085,1.386,7.755c-36.62,8.817-44.393,11.473-46.36,12.479c-3.035,0.695-19.947,0.043-28.154-0.28
		c-2.676-0.104-4.838-0.185-6.58-0.241c0.446-2.225,0.685-4.518,0.685-6.872c0-0.802-0.07-1.581-0.12-2.37
		c12.628-3.643,27.004-6.488,29.711-5.227c5.414,3.612,29.041-2.363,48.198-8.119C184.084,65.735,184.509,66.693,184.862,67.684z
		 M102.985,94.345c2.084,0.049,5.207,0.169,8.475,0.294c10.273,0.4,17.111,0.588,21.752,0.588c7.145,0,9.068-0.452,10.225-1.292
		c2.885-1.307,22.778-6.427,42.024-11.091c-0.828,3.482-2.259,7.083-4.332,10.789l-85.38,11.445
		C98.779,101.999,101.25,98.364,102.985,94.345z M201.456,112.461c1.738,1.807,3.285,3.911,4.438,6.349
		c-16.841,4.853-35.237,8.966-38.407,7.86c-5.28-3.515-22.853,0.657-34.782,4.103c-0.623-2.251-1.458-4.4-2.491-6.443h24.995
		c0.277,0,0.555-0.038,0.821-0.1l21.83-5.283L201.456,112.461z M131.158,153.917c2.081,0.052,5.205,0.168,8.474,0.295
		c10.468,0.406,17.377,0.595,22.008,0.595c2.214,0,3.863-0.048,5.178-0.13l-41.572,8.524
		C127.667,160.447,129.679,157.333,131.158,153.917z M194.59,107.085l-18.482,5.075l-21.316,5.16h-29.253
		c-2.375-2.765-5.175-5.144-8.296-7.063l69.285-6.902C187.808,103.771,191.025,104.946,194.59,107.085z M165.992,47.628
		l-18.056,4.959l-21.31,5.159H97.367c-2.376-2.766-5.176-5.146-8.295-7.062l69.162-6.892
		C159.52,44.314,162.477,45.596,165.992,47.628z M42.756,80.524c0-15.458,12.577-28.034,28.034-28.034
		c15.457,0,28.035,12.577,28.035,28.034c0,15.458-12.578,28.036-28.035,28.036C55.333,108.56,42.756,95.982,42.756,80.524z
		 M33.33,141.112c0.284-0.232,0.613-0.397,0.977-0.503L33.33,141.112z M33.428,152.802c0.525,0.085,1.062,0.164,1.615,0.164
		c5.376,0,9.753-4.377,9.753-9.757s-4.377-9.757-9.753-9.757c-5.383,0-9.76,4.377-9.76,9.757c0,0.661,0.07,1.308,0.197,1.934
		l-5.407,2.772c-0.473-1.496-0.799-3.057-0.799-4.706c0-8.695,7.075-15.77,15.77-15.77c8.694,0,15.769,7.074,15.769,15.77
		c0,8.696-7.075,15.77-15.769,15.77c-2.387,0-4.622-0.571-6.651-1.522L33.428,152.802z M35.043,171.241
		c-4.394,0-8.543-1.044-12.248-2.857l1.143-5.312c3.287,1.848,7.075,2.912,11.105,2.912c12.559,0,22.778-10.219,22.778-22.777
		c0-12.56-10.219-22.778-22.778-22.778c-12.56,0-22.778,10.219-22.778,22.778c0,4.709,1.437,9.086,3.893,12.724l-0.536,1.851
		l-2.317,3.094c-3.932-4.825-6.297-10.975-6.297-17.668c0-15.458,12.577-28.035,28.035-28.035c15.458,0,28.034,12.577,28.034,28.035
		C63.077,158.664,50.5,171.241,35.043,171.241z M70.928,140.099c0-15.458,12.576-28.034,28.034-28.034
		c4.163,0,8.105,0.938,11.663,2.569l-2.537,4.606c-2.798-1.231-5.885-1.923-9.125-1.923c-12.559,0-22.778,10.219-22.778,22.777
		c0,12.56,10.219,22.778,22.778,22.778s22.778-10.219,22.778-22.778c0-3.799-0.951-7.375-2.598-10.523l4.145-3.36
		c2.348,4.101,3.713,8.833,3.713,13.884c0,15.458-12.576,28.034-28.034,28.034S70.928,155.557,70.928,140.099z M201.853,147.491
		l-30.636,6.279c0.191-0.109,0.363-0.229,0.51-0.362c2.05-1.335,20.396-8.802,34.017-14.185
		C204.775,141.875,203.489,144.629,201.853,147.491z"/>
</g>
<g>
</g>
<g>
</g>
<g>
</g>
<g>
</g>
<g>
</g>
<g>
</g>
<g>
</g>
<g>
</g>
<g>
</g>
<g>
</g>
<g>
</g>
<g>
</g>
<g>
</g>
<g>
</g>
<g>
</g>
</svg>
