<?xml version="1.0" encoding="iso-8859-1"?>
<!-- Generator: Adobe Illustrator 16.0.0, SVG Export Plug-In . SVG Version: 6.00 Build 0)  -->
<!DOCTYPE svg PUBLIC "-//W3C//DTD SVG 1.1//EN" "http://www.w3.org/Graphics/SVG/1.1/DTD/svg11.dtd">
<svg version="1.1" id="Capa_1" xmlns="http://www.w3.org/2000/svg" xmlns:xlink="http://www.w3.org/1999/xlink" x="0px" y="0px"
	 width="195.597px" height="195.597px" viewBox="0 0 195.597 195.597" style="enable-background:new 0 0 195.597 195.597;"
	 xml:space="preserve" fill="#fff">
<title>Technology</title>
<g>
	<path d="M115.758,49.936c-1.937,0-3.504,1.569-3.504,3.504v32.853c0,1.934,1.567,3.504,3.504,3.504h72.714
		c1.938,0,3.505-1.571,3.505-3.504c0-1.935-1.567-3.504-3.505-3.504h-69.209V56.945h26.72c1.938,0,3.505-1.571,3.505-3.504V28.009
		c0-1.934-1.567-3.504-3.505-3.504H97.799c-1.939,0-3.504,1.571-3.504,3.504v54.78H53.119V67.896h28.035
		c1.938,0,3.504-1.571,3.504-3.504V49.06c0-1.935-1.565-3.504-3.504-3.504H69.981V31.513h14.238c1.939,0,3.504-1.569,3.504-3.504
		V3.504C87.724,1.569,86.158,0,84.219,0c-1.938,0-3.504,1.569-3.504,3.504v21H66.477c-1.938,0-3.504,1.571-3.504,3.504V49.06
		c0,1.934,1.565,3.504,3.504,3.504h11.172v8.322h-24.53V49.06c0-1.935-1.565-3.504-3.504-3.504h-26.72
		c-1.939,0-3.504,1.569-3.504,3.504v11.827H7.125c-1.938,0-3.504,1.569-3.504,3.504c0,1.934,1.566,3.504,3.504,3.504H19.39v14.894
		H7.125c-1.938,0-3.504,1.569-3.504,3.504c0,1.934,1.566,3.504,3.504,3.504H19.39V102.5H7.125c-1.938,0-3.504,1.568-3.504,3.505
		c0,1.934,1.566,3.504,3.504,3.504H19.39v14.894H7.125c-1.938,0-3.504,1.567-3.504,3.504c0,1.934,1.566,3.505,3.504,3.505H19.39
		v9.198H7.125c-1.938,0-3.504,1.567-3.504,3.505c0,1.934,1.566,3.504,3.504,3.504H19.39v19.712c0,1.934,1.565,3.504,3.504,3.504
		h26.72c1.938,0,3.504-1.57,3.504-3.504v-19.712h10.513v19.712c0,1.934,1.565,3.504,3.504,3.504h50.114l4.271,21.926
		c0.315,1.646,1.76,2.837,3.437,2.837h63.515c1.938,0,3.505-1.574,3.505-3.504c0-1.938-1.567-3.505-3.505-3.505h-60.627
		l-4.271-21.929c-0.314-1.646-1.759-2.834-3.436-2.834H70.64v-19.711c0-1.938-1.565-3.505-3.504-3.505H53.119v-9.198h43.366v12.703
		c0,1.934,1.565,3.504,3.505,3.504h54.754c1.938,0,3.504-1.57,3.504-3.504v-16.646h30.225c1.938,0,3.505-1.571,3.505-3.505
		c0-1.937-1.567-3.504-3.505-3.504h-33.729c-1.937,0-3.504,1.567-3.504,3.504v16.646h-47.746v-12.703
		c0-1.937-1.567-3.504-3.504-3.504H53.119v-14.894h135.353c1.938,0,3.505-1.57,3.505-3.504c0-1.937-1.567-3.505-3.505-3.505H53.119
		V89.797h44.68c1.938,0,3.504-1.571,3.504-3.504v-54.78h41.176v18.423H115.758z M46.11,163.825H26.398v-19.711v-16.208V52.564H46.11
		v75.342v16.208V163.825z"/>
</g>
<g>
</g>
<g>
</g>
<g>
</g>
<g>
</g>
<g>
</g>
<g>
</g>
<g>
</g>
<g>
</g>
<g>
</g>
<g>
</g>
<g>
</g>
<g>
</g>
<g>
</g>
<g>
</g>
<g>
</g>
</svg>
