<?xml version="1.0" encoding="iso-8859-1"?>
<!-- Generator: Adobe Illustrator 19.0.0, SVG Export Plug-In . SVG Version: 6.00 Build 0)  -->
<svg xmlns="http://www.w3.org/2000/svg" xmlns:xlink="http://www.w3.org/1999/xlink" version="1.1" id="Layer_1" x="0px" y="0px" viewBox="0 0 504.029 504.029" style="enable-background:new 0 0 504.029 504.029;" xml:space="preserve" width="512px" height="512px">
<g>
	<g>
		<path d="M487.242,289.662h-25.389v-8.393c0-9.252-7.535-16.787-16.787-16.787H411.03c-9.015,0-16.325,7.315-16.325,16.325v7.597    c-1.103-0.217-2.229-0.451-3.398-0.723c-9.482-2.205-18.959-5.774-27.745-10.981c-4.876-2.89-9.41-6.217-13.542-10.01    l-8.616-6.509c-14-10.5-22.24-26.982-22.24-44.492v-18.357h0.453c9.023,0,16.334-7.306,16.334-16.325v-34.035    c0-9.252-7.535-16.787-16.787-16.787h-20.901l-31.082-46.623c-1.557-2.335-4.177-3.738-6.984-3.738V63.039h100.721    c13.871,0,25.18-11.306,25.18-25.18c0-13.868-11.312-25.18-25.18-25.18h-218.23c-13.868,0-25.18,11.312-25.18,25.18    c0,13.875,11.31,25.18,25.18,25.18H243.41v16.787c-2.806,0-5.427,1.403-6.984,3.738l-31.082,46.623h-21.39    c-8.768,0-15.872,7.11-15.872,15.88v34.942c0,9.017,7.308,16.325,16.325,16.325h0.462v18.357c0,17.511-8.241,33.992-22.249,44.492    l-7.968,5.978c-4.771,4.323-9.304,7.65-14.18,10.54c-8.787,5.207-18.263,8.775-27.745,10.981    c-1.169,0.272-2.294,0.506-3.398,0.723v-7.597c0-9.013-7.313-16.325-16.334-16.325H58.967c-9.252,0-16.787,7.535-16.787,16.787    v8.393H16.787C7.772,289.662,0,297.439,0,306.449v83.934c0,9.017,7.77,16.787,16.787,16.787H42.18v9.308    c0,8.772,7.105,15.872,15.872,15.872h34.942c9.023,0,16.334-7.306,16.334-16.325v-8.601c20.355,1.279,29.886,7.319,32.992,14.954    c3.325,8.14,5.551,12.618,9.11,17.28c10.859,14.207,26.237,26.473,44.858,37.012c34.551,19.574,76.907,19.574,111.461-0.002    c18.628-10.549,34.002-22.81,44.845-37.008c3.565-4.66,5.793-9.137,9.115-17.272c3.1-7.639,12.639-13.684,32.997-14.964v8.601    c0,9.017,7.308,16.325,16.325,16.325h34.95c8.767,0,15.872-7.1,15.872-15.872v-9.308h25.389c9.017,0,16.787-7.77,16.787-16.787    v-83.934C504.029,297.439,496.257,289.662,487.242,289.662z M134.295,37.859c0-4.597,3.796-8.393,8.393-8.393h218.23    c4.597,0,8.393,3.796,8.393,8.393c0,4.602-3.793,8.393-8.393,8.393h-218.23C138.088,46.252,134.295,42.461,134.295,37.859z     M42.177,390.383h-25.39v-83.934h25.39V390.383z M247.902,96.613h7.803l22.383,33.574h-52.568L247.902,96.613z M184.869,146.973    h24.967h83.934h25.393v33.574H184.869V146.973z M92.541,415.564H58.967V281.269h33.574v8.823V407.17V415.564z M346.16,416.059    c-2.78,6.807-4.502,10.267-6.904,13.407c-9.294,12.17-22.964,23.072-39.781,32.596c-29.422,16.668-65.495,16.668-94.916,0.001    c-16.811-9.515-30.485-20.42-39.788-32.593c-2.396-3.139-4.118-6.604-6.906-13.428c-5.73-14.082-21.216-23.793-48.537-25.417    v-85.139c2.155-0.364,4.568-0.841,7.2-1.453c11.056-2.571,22.118-6.737,32.501-12.89c5.851-3.467,11.322-7.482,16.335-12.084    l7.327-5.446c18.235-13.669,28.965-35.126,28.965-57.922v-18.357h100.721v18.357c0,22.793,10.727,44.251,28.957,57.923    l7.976,5.978c4.372,4.069,9.843,8.084,15.694,11.551c10.383,6.153,21.445,10.318,32.501,12.89c2.632,0.612,5.045,1.089,7.2,1.453    v85.139C367.377,392.249,351.878,401.967,346.16,416.059z M445.066,415.564h-33.574v-8.393V290.091v-8.823h33.574v8.393h-0.001    V407.17h0.001V415.564z M487.242,390.383h-25.389v-83.934h25.389V390.383z" fill="#FFFFFF"/>
	</g>
</g>
<g>
</g>
<g>
</g>
<g>
</g>
<g>
</g>
<g>
</g>
<g>
</g>
<g>
</g>
<g>
</g>
<g>
</g>
<g>
</g>
<g>
</g>
<g>
</g>
<g>
</g>
<g>
</g>
<g>
</g>
</svg>
